<svg width="135" height="45" viewBox="0 0 135 45" fill="none" xmlns="http://www.w3.org/2000/svg">
<path d="M15.12 29.79H8.04L6.99 33H0L7.77 11.76H15.45L23.19 33H16.17L15.12 29.79ZM13.5 24.78L11.58 18.87L9.66 24.78H13.5ZM45.0731 33H38.4131L31.3631 22.32V33H24.7031V11.76H31.3631L38.4131 22.62V11.76H45.0731V33ZM78.682 11.76L73.822 33H65.542L63.082 20.94L60.622 33H52.342L47.482 11.76H54.652L56.572 25.14L59.452 11.76H66.712L69.592 25.14L71.512 11.76H78.682ZM94.6903 29.79H87.6103L86.5603 33H79.5703L87.3403 11.76H95.0203L102.76 33H95.7403L94.6903 29.79ZM93.0703 24.78L91.1503 18.87L89.2303 24.78H93.0703ZM114.953 33L110.963 25.38H110.933V33H104.273V11.76H114.173C115.893 11.76 117.363 12.07 118.583 12.69C119.803 13.29 120.713 14.12 121.313 15.18C121.933 16.22 122.243 17.4 122.243 18.72C122.243 20.14 121.843 21.4 121.043 22.5C120.263 23.6 119.133 24.39 117.653 24.87L122.273 33H114.953ZM110.933 20.94H113.573C114.213 20.94 114.693 20.8 115.013 20.52C115.333 20.22 115.493 19.76 115.493 19.14C115.493 18.58 115.323 18.14 114.983 17.82C114.663 17.5 114.193 17.34 113.573 17.34H110.933V20.94Z" fill="url(#paint0_linear)"/>
<circle cx="130.5" cy="6.5" r="4.5" fill="url(#paint1_radial)"/>
<defs>
<linearGradient id="paint0_linear" x1="-5" y1="10.5" x2="163" y2="33" gradientUnits="userSpaceOnUse">
<stop stop-color="#824FED"/>
<stop offset="1" stop-color="#A884EB"/>
</linearGradient>
<radialGradient id="paint1_radial" cx="0" cy="0" r="1" gradientUnits="userSpaceOnUse" gradientTransform="translate(130.5 6.5) rotate(90) scale(4.5)">
<stop stop-color="#824FED"/>
<stop offset="1" stop-color="#824FED" stop-opacity="0"/>
</radialGradient>
</defs>
</svg>
